<?xml version="1.0" ?><svg xmlns="http://www.w3.org/2000/svg" xmlns:xlink="http://www.w3.org/1999/xlink" version="1.1" id="Layer_1" width="128px" height="128px" viewBox="0 0 128 128" enable-background="new 0 0 128 128" xml:space="preserve"><g><path d="M64.076,7.962c30.899,0,56.038,25.139,56.038,56.038c0,30.899-25.138,56.038-56.038,56.038h-0.152   C33.025,120.038,7.886,94.899,7.886,64c0-30.899,25.139-56.038,56.038-56.038H64.076 M64.076,0.962h-0.152   C29.109,0.962,0.886,29.185,0.886,64v0c0,34.815,28.223,63.038,63.038,63.038h0.152c34.815,0,63.038-28.223,63.038-63.038v0   C127.114,29.185,98.891,0.962,64.076,0.962L64.076,0.962z"/></g><path fill="none" stroke="#000000" stroke-width="8" stroke-miterlimit="10" d="M94.14,50.531  c-0.673-2.692-5.65-21.962-29.378-21.962c-23.777,0-31.482,17.808-30.868,37.901c0.553,18.103,9.713,32.96,30.58,32.96  c15.146,0,26.229-8.535,26.229-19.858c0-9.063-4.625-13.702-12.526-16.276c-12.838-4.183-24.151-0.848-25.243,7.068  c-0.865,6.274,4.904,11.275,12.622,10.674c10.046-0.782,12.838-9.785,12.838-17.646c0-12.838-6.996-16.468-12.55-16.756  c-9.435-0.49-12.79,5.842-12.79,5.842"/></svg>