<?xml version="1.0" standalone="no"?>
<!DOCTYPE svg PUBLIC "-//W3C//DTD SVG 20010904//EN"
 "http://www.w3.org/TR/2001/REC-SVG-20010904/DTD/svg10.dtd">
<svg version="1.0" xmlns="http://www.w3.org/2000/svg"
 width="1024.000000pt" height="768.000000pt" viewBox="0 0 1024.000000 768.000000"
 preserveAspectRatio="xMidYMid meet">
<metadata>
Created by potrace 1.16, written by Peter Selinger 2001-2019
</metadata>
<g transform="translate(0.000000,768.000000) scale(0.100000,-0.100000)"
fill="#000000" stroke="none">
<path d="M3800 5803 c-129 -22 -329 -142 -471 -283 -81 -80 -99 -115 -99 -190
0 -76 16 -105 80 -149 66 -45 147 -68 291 -81 290 -26 347 -41 412 -105 45
-46 52 -148 15 -219 -13 -24 -56 -79 -95 -119 -26 -27 -272 -154 -383 -197
-30 -12 -59 -25 -65 -30 -5 -4 -28 -13 -50 -20 -22 -7 -44 -16 -50 -20 -5 -4
-30 -14 -55 -21 -25 -7 -49 -16 -55 -20 -17 -12 -176 -56 -252 -69 -94 -17
-210 -8 -268 20 -25 12 -45 28 -45 36 0 8 4 14 8 14 5 0 20 9 33 21 76 66 333
229 497 315 40 22 52 34 52 51 0 30 -26 30 -84 -1 -25 -14 -58 -27 -73 -31
-16 -4 -57 -22 -93 -41 -36 -18 -139 -70 -229 -115 -90 -44 -169 -86 -176 -92
-6 -7 -28 -21 -47 -31 -28 -15 -39 -29 -49 -63 -18 -65 -1 -110 65 -170 45
-41 68 -54 146 -77 86 -27 101 -28 204 -23 159 9 360 67 518 151 71 37 302
182 338 213 86 72 207 218 242 292 68 143 39 298 -67 358 -54 30 -180 60 -331
78 -71 8 -155 21 -187 29 -70 17 -137 60 -137 90 0 55 110 167 250 254 207
130 332 152 414 76 26 -24 28 -32 24 -80 -3 -37 -12 -63 -32 -89 -33 -43 -28
-68 11 -63 58 7 109 130 98 236 -6 61 -11 70 -49 108 -31 32 -54 44 -94 53
-52 11 -113 12 -162 4z"/>
<path d="M4671 5233 c-34 -14 -151 -146 -151 -171 0 -24 -43 -38 -184 -62
l-151 -26 -2 -29 c-2 -17 4 -39 12 -50 14 -18 27 -20 130 -19 63 0 115 -2 115
-6 0 -3 -8 -33 -17 -65 -24 -87 -24 -249 0 -295 24 -45 83 -97 126 -111 57
-19 164 -5 226 30 l54 31 21 -30 c25 -36 65 -56 147 -75 89 -21 212 -3 318 45
23 10 53 22 68 25 15 4 27 11 27 16 0 5 6 9 13 9 6 0 26 7 42 16 17 9 73 39
124 66 l95 49 24 -31 c32 -41 118 -80 176 -80 90 0 208 61 289 149 37 41 60
50 72 31 3 -6 26 -15 51 -21 36 -9 44 -16 44 -34 0 -23 12 -50 43 -97 38 -56
157 -94 254 -83 72 9 178 41 219 66 l32 19 7 -37 c14 -77 86 -97 144 -40 19
17 41 43 50 57 8 14 27 41 42 60 14 19 53 71 85 115 32 44 70 93 84 109 35 42
124 126 132 126 4 0 0 -19 -8 -42 -31 -88 -56 -205 -56 -265 0 -70 17 -103 79
-151 34 -25 42 -27 128 -25 117 1 198 27 400 125 127 61 199 101 221 124 12
12 28 26 36 30 25 15 58 71 58 97 0 16 -7 28 -19 32 -20 6 -215 -38 -235 -53
-6 -5 -32 -15 -59 -22 -26 -7 -50 -17 -53 -21 -3 -5 -11 -9 -19 -9 -7 0 -42
-13 -77 -29 -74 -33 -78 -35 -183 -72 -44 -16 -84 -29 -89 -29 -10 0 -2 121
13 177 21 83 31 147 31 205 0 54 -3 63 -31 89 -17 16 -42 29 -55 29 -24 0 -92
-30 -122 -53 -32 -26 -152 -150 -152 -158 0 -5 -4 -9 -10 -9 -5 0 -10 17 -10
39 0 50 -18 64 -67 55 -52 -9 -84 -27 -129 -71 -50 -48 -70 -86 -103 -187
l-26 -81 -80 -27 c-186 -61 -265 -58 -305 14 -26 47 -22 64 19 73 17 4 31 11
31 16 0 5 6 9 13 9 17 0 164 100 207 141 112 107 127 154 65 216 l-35 35 -83
-5 c-115 -7 -161 -20 -215 -58 -83 -59 -134 -132 -155 -219 -4 -16 -17 -30
-37 -37 -16 -6 -30 -10 -30 -8 0 3 26 56 66 136 41 80 31 149 -20 149 -7 0
-87 -73 -177 -162 -164 -163 -225 -208 -280 -208 l-30 0 36 31 c19 17 35 40
35 51 0 19 -4 20 -54 14 l-54 -7 5 68 c3 37 12 75 19 84 29 33 9 69 -37 69
-18 0 -36 -10 -53 -31 -41 -48 -53 -78 -70 -168 -18 -92 -21 -101 -40 -101 -7
0 -45 -13 -83 -29 -149 -61 -350 -111 -449 -111 -99 0 -135 41 -98 112 13 24
20 29 41 25 104 -20 361 140 418 259 24 51 20 107 -11 137 -26 26 -42 32 -129
42 -116 14 -261 -44 -362 -144 -137 -135 -188 -243 -181 -383 l3 -68 -38 -15
c-62 -25 -147 -14 -182 24 -31 36 -21 140 31 308 28 91 32 95 142 142 90 38
141 76 159 119 12 29 12 36 -3 61 -27 46 -82 71 -150 70 -33 0 -65 -3 -73 -6z
m212 -80 c16 -10 5 -24 -35 -43 -23 -11 -54 -20 -69 -20 -15 0 -30 -4 -33 -9
-3 -5 -17 -11 -32 -14 l-25 -4 28 30 c31 35 60 59 83 69 14 6 66 1 83 -9z
m1869 -124 c19 -10 16 -14 -38 -50 -33 -21 -62 -39 -66 -39 -4 0 -32 -16 -62
-35 -61 -39 -78 -43 -69 -17 13 35 46 74 87 99 22 14 43 29 46 33 14 20 72 25
102 9z m-1414 -21 c-6 -18 -129 -98 -150 -98 -9 0 -20 -4 -23 -10 -7 -12 -114
-44 -122 -37 -5 6 24 36 86 90 18 16 51 37 74 47 49 22 141 27 135 8z m1869
-85 c7 -17 -27 -88 -58 -122 -10 -11 -19 -24 -19 -28 0 -5 -10 -14 -21 -22
-20 -12 -21 -11 -14 6 4 10 13 41 19 68 23 93 74 148 93 98z"/>
<path d="M3522 3938 c-13 -13 -15 -40 -6 -75 7 -27 54 -33 54 -8 0 19 13 19
51 -1 23 -11 40 -35 65 -90 41 -90 55 -174 55 -319 0 -123 -11 -167 -62 -243
-18 -26 -33 -48 -33 -49 -1 -1 -44 -9 -97 -17 -136 -22 -328 -117 -361 -179
-6 -12 -18 -27 -26 -33 -22 -16 -28 -99 -8 -129 37 -57 106 -67 192 -27 67 30
187 124 266 207 l37 40 248 -2 c136 0 325 -8 418 -17 190 -17 275 -13 275 13
0 22 -46 35 -234 66 -82 14 -154 29 -160 33 -19 15 -156 33 -299 39 -134 6
-137 7 -131 27 4 12 12 28 19 36 52 60 68 366 27 510 -29 106 -74 172 -137
204 -54 28 -132 35 -153 14z m-64 -980 c-32 -32 -122 -104 -146 -117 -11 -6
-33 -11 -47 -11 l-27 0 24 30 c13 16 52 44 88 61 36 17 76 37 90 45 36 20 43
17 18 -8z"/>
<path d="M4996 3509 c-8 -12 -23 -49 -33 -82 -39 -132 -214 -245 -278 -180
-23 23 -16 101 13 138 11 14 18 33 15 41 -6 17 -42 18 -64 1 -37 -28 -63 -191
-39 -237 5 -10 25 -28 44 -39 57 -35 145 -25 214 26 41 31 41 36 -8 -183 -6
-28 -10 -57 -8 -64 2 -8 -21 -20 -62 -33 -36 -10 -67 -22 -70 -26 -3 -4 -39
-20 -80 -36 -41 -15 -82 -33 -90 -40 -8 -7 -40 -25 -70 -40 -66 -33 -162 -128
-194 -193 -13 -26 -30 -60 -39 -77 -22 -43 -41 -176 -34 -243 9 -87 23 -123
67 -174 71 -81 171 -87 319 -17 72 34 167 110 177 141 3 11 13 28 21 37 26 31
90 194 108 276 9 44 25 107 36 140 10 33 25 112 34 175 8 63 22 144 30 180 29
125 75 405 75 456 0 27 -5 55 -12 62 -19 19 -55 14 -72 -9z m-151 -668 c-3 -6
-9 -92 -14 -193 -9 -175 -19 -248 -46 -313 -7 -16 -18 -46 -24 -65 -25 -80
-156 -150 -281 -150 -93 0 -114 18 -130 108 -15 90 0 188 41 258 59 105 224
251 332 295 18 7 37 17 42 22 17 14 70 45 78 46 5 1 6 -3 2 -8z"/>
<path d="M5905 3456 c-14 -14 -25 -30 -25 -36 0 -6 -7 -18 -15 -26 -8 -9 -15
-29 -15 -45 0 -26 3 -29 30 -29 26 0 30 -3 25 -22 -3 -13 -12 -59 -21 -103
-44 -233 -43 -247 10 -265 34 -11 86 0 86 19 0 5 12 24 28 42 15 18 41 56 57
85 50 87 112 171 172 229 31 30 60 55 65 55 12 0 10 -43 -7 -145 -20 -123 -19
-178 6 -235 19 -45 27 -51 78 -71 85 -33 180 -29 311 11 58 18 112 40 121 49
9 10 43 27 77 39 33 12 65 29 72 37 7 8 18 15 26 15 18 0 35 34 28 54 -8 21
-26 20 -80 -4 -74 -34 -96 -41 -164 -50 -36 -5 -110 -18 -165 -30 -108 -24
-164 -22 -192 6 -16 16 -18 39 -18 202 0 170 -1 185 -19 198 -24 17 -79 18
-108 3 -25 -13 -84 -65 -107 -93 -9 -11 -27 -31 -41 -45 -14 -15 -39 -43 -55
-65 -69 -89 -65 -86 -54 -36 6 25 11 84 12 132 2 74 -1 91 -19 115 -28 38 -67
41 -99 9z"/>
<path d="M5263 3411 c-23 -30 -33 -76 -58 -256 -20 -149 -20 -172 6 -185 32
-18 68 -4 83 33 42 99 69 145 124 217 45 58 123 143 126 138 2 -2 -4 -63 -11
-135 -20 -192 -6 -230 92 -250 22 -5 56 -6 75 -2 19 3 31 7 25 8 -5 1 15 14
45 29 44 21 56 32 58 54 4 31 -25 46 -57 29 -11 -6 -36 -11 -55 -11 -42 0 -40
-6 -55 162 -9 100 -14 123 -37 158 -22 33 -32 40 -60 40 -22 0 -44 -9 -66 -28
-18 -16 -44 -37 -56 -48 -13 -10 -40 -39 -59 -64 l-35 -45 5 65 c3 36 9 74 13
85 4 11 4 17 -1 13 -4 -4 -14 -1 -22 7 -23 24 -57 18 -80 -14z"/>
</g>
</svg>
